# xmcd
#
# Track frame offsets:
#	150
#	17121
#	34847
#	55046
#	78543
#	94932
#	120891
#	136629
#	158816
#	181924
#	202299
#	220828
#
# Disc length: 3295 seconds
#
# Revision: 1
# Processed by: cddbd v1.5.2PL0 Copyright (c) Steve Scherf et al.
# Submitted via: audiograbber 1.83.01
#
DISCID=9b0cdd0c
DTITLE=Brooke Russell and The Mean Reds - Poor Virginia
DYEAR=2013
DGENRE=alt country
TTITLE0=Fondly
TTITLE1=Cotton
TTITLE2=Trouble
TTITLE3=Home Is Where He Is
TTITLE4=Part Of The Game
TTITLE5=Back To You
TTITLE6=End Of The Line
TTITLE7=My King
TTITLE8=Sweet Heart
TTITLE9=Lullaby
TTITLE10=Dreaming
TTITLE11=Silly Boy
EXTD=
EXTT0=
EXTT1=
EXTT2=
EXTT3=
EXTT4=
EXTT5=
EXTT6=
EXTT7=
EXTT8=
EXTT9=
EXTT10=
EXTT11=
PLAYORDER=
